<!-- Generated by IcoMoon.io -->
<svg version="1.1" xmlns="http://www.w3.org/2000/svg" width="1024" height="1024" viewBox="0 0 1024 1024">
<title></title>
<g id="icomoon-ignore">
</g>
<path fill="#fff" d="M736 224h128v32h-64v607.781c0 53.467-42.982 96.219-96.004 96.219h-351.992c-53.317 0-96.004-43.079-96.004-96.219v-607.781h-64v-32h192v-63.844c0-35.551 28.616-64.156 63.917-64.156h160.167c35.249 0 63.917 28.724 63.917 64.156v63.844h64zM384 320v544h32v-544h-32zM512 320v544h32v-544h-32zM640 320v544h32v-544h-32zM448.094 128c-17.725 0-32.094 14.165-32.094 31.967v64.033h224v-64.033c0-17.655-14.012-31.967-32.094-31.967h-159.813z"></path>
</svg>
